<svg width="220" height="52" viewBox="0 0 220 52" fill="none" xmlns="http://www.w3.org/2000/svg">
<path d="M134.364 42H129.036L122.88 33.72L117.408 42H112.224L120.468 30.372L112.188 18.636H117.408L123.312 27.06L128.424 18.636H133.572L125.688 30.3L134.364 42ZM141.117 24.504L145.329 37.104L149.001 24.504H153.321L146.625 45.168C145.929 47.256 145.077 48.756 144.069 49.668C143.085 50.58 141.825 51.036 140.289 51.036C138.729 51.036 137.169 50.652 135.609 49.884V46.14C136.857 46.932 138.117 47.328 139.389 47.328C140.229 47.328 140.913 46.992 141.441 46.32C141.993 45.648 142.437 44.772 142.773 43.692L143.313 42L136.293 24.504H141.117ZM157.098 17.304H161.346V42H157.098V17.304ZM180.236 26.592C180.836 27.36 181.28 28.248 181.568 29.256C181.88 30.264 182.036 31.188 182.036 32.028C182.036 32.868 181.988 33.624 181.892 34.296H170.588C170.636 35.712 170.984 36.864 171.632 37.752C172.28 38.64 173.264 39.084 174.584 39.084C176.336 39.084 177.38 38.316 177.716 36.78H182C181.712 38.532 180.908 39.912 179.588 40.92C178.22 41.976 176.552 42.504 174.584 42.504C172.28 42.504 170.348 41.664 168.788 39.984C167.18 38.232 166.376 35.988 166.376 33.252C166.376 30.444 167.18 28.188 168.788 26.484C170.324 24.852 172.256 24.036 174.584 24.036C177.008 24.036 178.892 24.888 180.236 26.592ZM174.62 27.42C173.42 27.42 172.484 27.816 171.812 28.608C171.14 29.376 170.744 30.372 170.624 31.596H178.076C178.076 29.7 177.476 28.428 176.276 27.78C175.82 27.54 175.268 27.42 174.62 27.42ZM202.673 27.816C203.801 25.296 205.781 24.036 208.613 24.036C210.701 24.036 212.321 24.744 213.473 26.16C214.577 27.504 215.129 29.376 215.129 31.776V42H210.845V31.776C210.845 30.48 210.533 29.508 209.909 28.86C209.285 28.188 208.409 27.852 207.281 27.852C206.153 27.852 205.229 28.344 204.509 29.328C203.789 30.312 203.405 31.8 203.357 33.792V42H199.109V31.776C199.109 30.48 198.797 29.508 198.173 28.86C197.549 28.188 196.673 27.852 195.545 27.852C194.417 27.852 193.445 28.356 192.629 29.364C191.837 30.372 191.417 31.884 191.369 33.9V42H187.121V24.504H190.829L191.297 27.528C192.449 25.2 194.297 24.036 196.841 24.036C198.305 24.036 199.517 24.372 200.477 25.044C201.461 25.716 202.193 26.64 202.673 27.816Z" fill="#467846"/>
<path d="M59.1838 41.7954C59.9009 39.1081 60.2353 34.0444 56.7712 29.944C53.3071 25.8437 48.9981 22.6106 43.2028 19.287C45.4883 20.7083 42.7051 18.9775 43.2028 19.287C36.2226 16.9652 15.5325 8.91872 5.52944 8.8468C11.2539 16.6712 12.7733 18.6872 14.4437 21.1395C16.114 23.5918 24.3145 32.0719 29.8742 35.7221C35.434 39.3722 41.5444 42.1595 46.9802 43.525C52.4159 44.8905 56.7752 44.7333 59.1838 43.0849L37.801 28.0905L59.1838 41.7954Z" fill="#467846"/>
<path d="M61.0958 40.6368C60.52 38.775 61.3442 34.4341 63.3513 31.7968C65.3584 29.1595 67.9397 27.1505 71.4577 25.1462C70.0753 26.0119 71.7588 24.9576 71.4577 25.1462C75.7714 23.8769 88.5047 19.3219 94.834 19.7196C91.5648 24.7917 90.6943 26.0965 89.7481 27.6918C88.8018 29.287 83.9949 34.695 80.6407 36.9322C77.2865 39.1693 73.5446 40.7944 70.1654 41.4814C66.7861 42.1685 64.0193 41.8668 62.4198 40.6368L75.2766 31.3818L61.0958 40.6368Z" fill="#467846"/>
</svg>
